<svg width="15" height="16" viewBox="0 0 15 16" fill="none" xmlns="http://www.w3.org/2000/svg">
<path fill-rule="evenodd" clip-rule="evenodd" d="M9.59991 6.46799C9.5457 6.76862 9.5457 6.76862 9.50627 6.96082C9.40771 7.23188 9.27957 7.44872 9.11694 7.68528C9.10708 7.69021 9.10215 7.69514 9.09229 7.70007C8.63889 8.21754 8.09677 8.53788 7.44624 8.76458C7.3181 8.79415 7.3181 8.79415 7.30332 8.80401V8.83358C7.34767 8.87793 7.43145 8.86808 7.48566 8.86808C7.53495 8.88286 7.53495 8.88286 7.6138 8.88779C7.85036 8.96172 8.07706 9.05043 8.29391 9.17856C8.30869 9.19828 8.41219 9.2722 8.57975 9.42005C8.62903 9.47919 8.67831 9.53833 8.7276 9.59747C8.83109 9.74532 8.90502 9.91781 8.96909 10.0903C8.9888 10.179 9.00851 10.2677 9.02823 10.3564C9.03808 10.455 9.03808 10.455 9.03808 10.7113C9.01837 10.8345 8.99373 10.9577 8.97401 11.0809C8.93952 11.1548 8.92966 11.209 8.87052 11.3569C8.74238 11.6131 8.59946 11.8497 8.41219 12.0666C8.18548 12.3031 7.93907 12.5101 7.67787 12.7072C7.63351 12.7269 7.56452 12.7516 7.53495 12.791C7.13082 13.0177 6.73163 13.1705 6.29301 13.3233C6.02195 13.3775 5.75582 13.4317 5.47984 13.4662C4.97715 13.4958 4.97715 13.4958 4.83423 13.5106C4.39068 13.5253 2.68056 13.6091 2.65099 13.6042C2.62634 13.5795 2.63127 13.5155 2.65099 13.4908C3.10932 13.3578 3.57751 13.205 4.04077 13.0916C4.0802 13.0769 4.85887 12.8502 4.93772 12.8206C5.28763 12.7467 5.63262 12.6136 5.9776 12.52C6.05645 12.4904 6.47043 12.377 6.85484 12.2637C7.19489 12.1848 7.55466 12.0764 7.88486 11.9631C7.89964 11.9433 7.89964 11.9236 7.89964 11.899C7.88978 11.8941 7.87993 11.8842 7.875 11.8793C7.84543 11.8793 7.40188 11.9926 5.33199 12.4953C5.32213 12.5002 5.31228 12.5052 5.30735 12.5101C4.92787 12.584 4.54839 12.6925 4.16891 12.7812C4.13934 12.791 4.10977 12.8009 4.08512 12.8107C2.65099 13.1508 2.65099 13.1508 2.61649 13.1656H2.57706C2.54749 13.1261 2.52778 13.1212 2.53763 13.067C2.64606 12.998 2.64606 12.998 2.91219 12.8452C2.98118 12.8157 3.63665 12.4411 3.70072 12.4115C4.22312 12.1011 4.76523 11.8103 5.28763 11.5047C5.72625 11.2632 6.1698 11.0119 6.60842 10.7704C6.62321 10.7606 6.63799 10.7507 6.65278 10.7359C6.9879 10.5634 7.31317 10.3712 7.64337 10.1889C7.79615 10.1248 7.95878 10.0262 8.09677 9.93259C8.12142 9.8981 8.1017 9.85374 8.06228 9.84881C7.74193 10.0114 7.42652 10.179 7.11111 10.3416C7.06183 10.3564 7.06183 10.3564 7.01254 10.3909C6.10573 10.8542 6.10573 10.8542 6.03181 10.8838C5.92832 10.9478 5.65726 11.0809 5.63262 11.1006C5.23835 11.2977 4.84409 11.5047 4.45475 11.7166C4.43996 11.7216 4.43011 11.7216 4.42025 11.7265C4.20833 11.8694 3.95206 11.9631 3.73521 12.0961C3.35573 12.2834 2.97133 12.4805 2.59677 12.6777C2.55242 12.6875 2.26658 12.8896 2.29615 12.6925C2.42921 12.5692 2.56228 12.4411 2.69534 12.3179C2.73477 12.2735 2.83826 12.1799 2.85305 12.175C2.99597 12.0173 3.1586 11.8349 3.33602 11.7166C3.34588 11.7019 3.36066 11.6871 3.37052 11.6674C3.7155 11.347 4.06541 11.0218 4.39561 10.6817C5.3862 9.73546 6.38172 8.78923 7.37724 7.85777C7.40681 7.81835 7.43638 7.77892 7.48073 7.75428C8.08692 7.17274 8.12634 7.12838 8.84588 6.44335C8.89516 6.40885 8.89516 6.40885 8.90995 6.37928C8.90995 6.261 8.84095 6.31521 8.77688 6.36449C8.59946 6.54191 8.40726 6.69962 8.22491 6.87211C8.15591 6.97068 8.03271 7.03967 7.95385 7.13331C7.78136 7.29102 7.5793 7.50294 7.38217 7.64093C7.23925 7.78385 7.07661 7.9317 6.91891 8.05491C6.35215 8.60195 5.72625 9.09478 5.16443 9.64675C4.88844 9.8636 4.64695 10.1445 4.36604 10.3564C4.29211 10.4402 4.29211 10.4402 3.78943 10.9035C3.76971 10.9183 3.75493 10.9281 3.73521 10.938C3.17339 11.4554 2.6017 11.9631 2.03002 12.4707C1.96595 12.4707 1.95116 12.4559 1.95609 12.3918C2.64113 11.3963 3.32616 10.3959 4.00134 9.39541C4.27733 8.98143 4.54839 8.55759 4.83916 8.15347C5.04615 7.84792 5.06093 7.81835 5.13486 7.71978C5.66219 6.93618 6.21416 6.14765 6.73163 5.35419C6.7957 5.29012 6.77599 5.25069 6.6922 5.26055C6.25358 5.87659 5.80018 6.48277 5.36649 7.10867C5.29256 7.20231 5.15457 7.4093 3.68593 9.4644C3.65143 9.51862 3.1241 10.2381 3.08961 10.2825C2.61649 10.9429 2.14337 11.6132 1.66039 12.2637C1.63575 12.2834 1.61111 12.3031 1.57661 12.2834V12.2243C1.92159 11.3273 2.28629 10.4254 2.66084 9.54326C3.20789 8.16826 3.75493 6.7834 4.31183 5.4084C4.31183 5.37883 4.31183 5.37883 4.29211 5.35419C4.2724 5.35419 4.25269 5.35912 4.2379 5.3739C3.81407 6.32507 3.37545 7.27623 2.94668 8.2274C2.92697 8.25204 2.47849 9.25249 2.35036 9.50876C2.29615 9.64182 2.25179 9.72561 2.19265 9.8636C1.82796 10.6324 1.47805 11.416 1.12814 12.1947C1.08378 12.2144 1.04435 12.2193 1 12.1996C1.00493 12.1454 1.00493 12.1454 1.17742 11.5097C1.1922 11.4752 1.24149 11.283 1.25627 11.2435C1.27106 11.1745 1.28584 11.14 1.4534 10.4796C1.54211 10.1494 1.63082 9.81924 1.72446 9.49397C1.73925 9.42498 2.57706 6.39406 2.58692 6.34971C2.61649 6.25114 2.64113 6.1575 2.6707 6.05894C2.77912 5.6351 2.89247 5.24084 2.97625 4.90078C2.98611 4.87614 2.99597 4.87121 3.01568 4.85643C4.51389 4.85643 6.01702 4.86136 7.52016 4.8515C7.97849 4.87614 8.44668 4.955 8.87052 5.15213C8.91487 5.18663 8.91487 5.18663 9.0233 5.24577C9.11693 5.31476 9.2155 5.39362 9.30421 5.48233C9.35349 5.55132 9.39785 5.62032 9.44713 5.68932C9.4767 5.75831 9.50134 5.83224 9.53091 5.90123C9.55063 6.00473 9.57527 6.10822 9.59498 6.20679C9.59498 6.28564 9.59498 6.37435 9.59991 6.46799ZM12 6.85733C11.9704 7.06924 11.9359 7.26638 11.8768 7.46844C11.7536 7.72471 11.7536 7.72471 11.6747 7.86763C11.5318 8.08448 11.3495 8.26682 11.1573 8.43932C10.97 8.58224 10.97 8.58224 10.7679 8.72516C10.5264 8.86808 10.2603 8.98143 10.004 9.09971C9.90547 9.12928 9.78719 9.15392 9.69848 9.20813C9.69848 9.23277 9.69848 9.23277 9.7034 9.24263C10.0336 9.27713 10.3244 9.39048 10.6004 9.57283C10.7334 9.68618 10.8616 9.79953 10.9749 9.93752C11.108 10.1297 11.2115 10.317 11.2903 10.5338C11.31 10.6226 11.3297 10.7063 11.3495 10.795C11.3642 10.933 11.3642 11.071 11.3642 11.214C11.3199 11.6181 11.172 11.9778 10.9552 12.3228C10.8172 12.515 10.8172 12.515 10.6792 12.6925C10.4427 12.9389 10.1519 13.2198 9.83647 13.3627C9.60484 13.5352 9.29435 13.6436 9.02823 13.752C8.86066 13.8013 8.68817 13.8555 8.52061 13.9097C8.14113 13.9787 8.14113 13.9787 8.1017 13.9935C7.81093 14.0231 7.81093 14.0231 7.73208 14.0379C6.04659 14.1069 4.3414 14.0773 2.65591 14.0773C2.6362 14.0428 2.62634 13.9935 2.6707 13.9738C3.47894 13.9393 4.29211 13.8999 5.10036 13.8752C5.25806 13.8752 5.43056 13.8802 5.58333 13.8555C6.12545 13.8358 6.65278 13.8112 7.18996 13.7274C7.22446 13.7126 7.36738 13.683 7.5793 13.6288C8.62903 13.2888 9.58512 12.6235 10.0287 11.5787C10.0582 11.485 10.0582 11.485 10.0878 11.4308C10.1125 11.3125 10.1371 11.1942 10.1617 11.076C10.1667 10.7852 10.1667 10.7852 10.1617 10.6718C10.1223 10.3909 10.0188 10.11 9.85618 9.87838C9.78226 9.79953 9.71326 9.71575 9.63934 9.6369C9.29435 9.36584 8.9543 9.18349 8.51075 9.14899C8.51075 9.11449 8.52061 9.10957 8.55018 9.09478C8.6586 9.06521 8.6586 9.06521 8.81138 9.011C9.5112 8.70544 10.1371 8.29639 10.5314 7.62614C10.5708 7.53743 10.6102 7.4438 10.6496 7.35016C10.7186 7.12345 10.7581 6.89675 10.7778 6.66019C10.7679 6.5567 10.763 6.4532 10.7581 6.34971C10.7384 6.28564 10.7186 6.21664 10.6989 6.14765C10.6151 5.94559 10.5264 5.82238 10.3737 5.6696C10.1322 5.4774 9.86111 5.33448 9.55556 5.26548C9.55556 5.26055 9.55556 5.25069 9.56048 5.24577C9.71819 5.2162 9.91039 5.24577 10.0681 5.25562C10.142 5.27041 10.142 5.27041 10.4082 5.29998C10.4969 5.31969 10.5856 5.3394 10.6792 5.35912C10.9651 5.43797 11.2509 5.53654 11.4924 5.70903C11.5614 5.7731 11.6353 5.83716 11.7043 5.90123C11.7634 5.99487 11.8226 6.08358 11.8817 6.17229C11.9113 6.261 11.9409 6.34478 11.9704 6.43349C11.9754 6.56163 11.9951 6.70948 12 6.85733Z" fill="#F94F00"/>
</svg>
