<svg width="12" height="12" viewBox="0 0 12 12" fill="none" xmlns="http://www.w3.org/2000/svg">
<path fill-rule="evenodd" clip-rule="evenodd" d="M3.12684 2.60614C5.87163 -0.118398 9.19374 -0.817256 10.5206 1.03624C11.8474 2.89986 10.6826 6.63723 7.93782 9.35163C5.19303 12.0762 1.87093 12.775 0.544108 10.9215C-0.772581 9.06804 0.382054 5.33067 3.12684 2.60614Z" fill="#F99D28"/>
<path fill-rule="evenodd" clip-rule="evenodd" d="M4.94996 1.15771C4.65624 1.38054 4.34226 1.64388 4.03841 1.9376C1.62785 4.30764 0.635271 7.56897 1.82029 9.19964C3.04582 10.8303 6.00331 10.2327 8.44425 7.83231C9.76094 6.55614 10.6522 5.05714 11.0169 3.66955C11.1283 2.64658 10.9763 1.74516 10.5206 1.05643C9.46722 -0.391929 7.20859 -0.280517 4.94996 1.15771Z" fill="#AF2A30"/>
<path fill-rule="evenodd" clip-rule="evenodd" d="M6.30714 10.7088C5.02083 11.671 3.69402 12.1572 2.39758 11.9546C2.94452 11.985 3.38004 11.3773 3.74466 10.567C4.10928 9.73652 4.3321 8.96677 4.50429 8.24765C4.7575 7.10314 4.77775 6.29287 4.64608 6.12069C4.42326 5.82697 3.92697 5.908 3.35978 6.2321C3.08631 6.38403 2.73182 6.28275 3.15721 5.7662C3.59273 5.24965 5.2943 3.99373 5.91213 3.80129C6.59073 3.60886 7.36049 3.87219 7.09715 4.61156C6.91484 5.13824 4.5448 11.3571 6.30714 10.7088ZM8.24166 1.07676C8.56577 1.40087 8.3632 2.09973 7.82639 2.64666C7.27946 3.19359 6.56035 3.38603 6.24637 3.07205C5.91213 2.75807 6.1147 2.04908 6.66163 1.49202C7.21869 0.934961 7.93781 0.762781 8.24166 1.07676Z" fill="white"/>
</svg>
